# xmcd CD database file
#
# Track frame offsets:
#	150
#	13845
#	27189
#	38190
#	51426
#	65334
#	80352
#	94389
#	108828
#	121605
#	134598
#	146352
#	160590
#	170931
#
# Disc length: 2474 seconds
#
# Revision: 1
# Processed by: cddbd v1.5.2PL0 Copyright (c) Steve Scherf et al.
# Submitted via: CDex 1.51
#
DISCID=ba09a80e
DTITLE=lmeida - Enciclopedia Musical Brasileira
DYEAR=1900
DGENRE=Jazz
TTITLE0=Feitiço da Vila
TTITLE1=A tua vida é um segredo
TTITLE2=Camisa Amarela
TTITLE3=Se eu morresse amanhã de manhã
TTITLE4=Quem vem pra beira do mar
TTITLE5=Tenha pena de mim
TTITLE6=Quando tu passas por mim
TTITLE7=Três apitos
TTITLE8=Bom dia, tristeza
TTITLE9=O "X" do problema
TTITLE10=Não se aprende na escola
TTITLE11=Último desejo
TTITLE12=A voz do morro
TTITLE13=Fita amarela
EXTD=
EXTT0=
EXTT1=
EXTT2=
EXTT3=
EXTT4=
EXTT5=
EXTT6=
EXTT7=
EXTT8=
EXTT9=
EXTT10=
EXTT11=
EXTT12=
EXTT13=
PLAYORDER=
